<svg width="1920" height="2262" viewBox="0 0 1920 2262" fill="none" xmlns="http://www.w3.org/2000/svg">
<path d="M0 407L519 353.5L971.5 474L0 407Z" fill="#F0F0F0"/>
<path d="M1379.5 0L1404 230L1284 169.5L1379.5 0Z" fill="#D6D6D6"/>
<path d="M1284 169.5L1404 229.5L1222 332.5L1112 337.5L1284 169.5Z" fill="#DDDDDD"/>
<path d="M971.5 474L1222 332.5L1112 337.5L971.5 474Z" fill="#E3E3E3"/>
<path d="M1284 169.5L519 353.5L1112 337.554L1284 169.5Z" fill="#E3E3E3"/>
<path d="M972.5 474.5L519 353.5L1112 337.554L972.5 474.5Z" fill="#EBEBEB"/>
<path d="M1724 391L1404 229.5L1222 332.5L1724 391Z" fill="#E3E3E3"/>
<path d="M1724 391L971.5 474L1222 332.5L1724 391Z" fill="#ECECEC"/>
<path d="M1724 391L1919.5 553V705.5L971.5 474L1724 391Z" fill="#EEEEEE"/>
<path d="M0 2263.5H1919.5V705.5V1122L0 1798.5V2263.5Z" fill="#FBFBFB"/>
<path d="M1724.5 391L1404 230.5L1379.5 0L1724.5 391Z" fill="#DDDDDD"/>
<path d="M0 407L972 474L1919.5 705.5V1122L0 1798.5V407Z" fill="#F0F0F0"/>
<path d="M0 1401.5L872.5 1491L0 1799V1401.5Z" fill="#F5F5F5"/>
</svg>
