<svg width="1920" height="2262" viewBox="0 0 1920 2262" fill="none" xmlns="http://www.w3.org/2000/svg">
<path d="M4.49902 407L522.823 353.5L974.734 474L4.49902 407Z" fill="#F0F0F0"/>
<path d="M1382.2 0L1406.67 230L1286.82 169.5L1382.2 0Z" fill="#D6D6D6"/>
<path d="M1286.83 169.5L1406.67 229.5L1224.91 332.5L1115.05 337.5L1286.83 169.5Z" fill="#DDDDDD"/>
<path d="M974.734 474L1224.91 332.5L1115.05 337.5L974.734 474Z" fill="#E3E3E3"/>
<path d="M1286.83 169.5L522.823 353.5L1115.05 337.554L1286.83 169.5Z" fill="#E3E3E3"/>
<path d="M975.733 474.5L522.823 353.5L1115.05 337.554L975.733 474.5Z" fill="#EBEBEB"/>
<path d="M1726.25 391L1406.67 229.5L1224.91 332.5L1726.25 391Z" fill="#E3E3E3"/>
<path d="M1726.25 391L974.734 474L1224.91 332.5L1726.25 391Z" fill="#ECECEC"/>
<path d="M1725.26 391L1920.5 553V705.5L973.735 474L1725.26 391Z" fill="#EEEEEE"/>
<path d="M0 2263.5H1920.5V705.5V1122L0 1798.5V2263.5Z" fill="#FBFBFB"/>
<path d="M1726.75 391L1406.67 230.5L1382.2 0L1726.75 391Z" fill="#DDDDDD"/>
<path d="M0 407L973.266 473.976L1922 705.393V1121.74L0 1798V407Z" fill="#F0F0F0"/>
<path d="M0.5 1401.5L871.864 1491L0.5 1799V1401.5Z" fill="#F5F5F5"/>
</svg>
