<svg width="18" height="12" viewBox="0 0 18 12" fill="none" xmlns="http://www.w3.org/2000/svg">
<path d="M12.7868 6.89762C11.8456 6.89762 10.379 7.18291 9.25738 7.7367C8.13581 7.17452 6.66913 6.89762 5.72795 6.89762C4.02598 6.89762 0.629883 7.80383 0.629883 9.62465V11.9321H17.8849V9.62465C17.8849 7.80383 14.4888 6.89762 12.7868 6.89762ZM9.64954 10.6735H1.80636V9.62465C1.80636 9.17154 3.81421 8.15625 5.72795 8.15625C7.64169 8.15625 9.64954 9.17154 9.64954 9.62465V10.6735ZM16.7084 10.6735H10.826V9.62465C10.826 9.23867 10.6692 8.90304 10.4182 8.60096C11.1084 8.34924 11.9554 8.15625 12.7868 8.15625C14.7006 8.15625 16.7084 9.17154 16.7084 9.62465V10.6735ZM5.72795 6.05853C7.24168 6.05853 8.47306 4.74116 8.47306 3.12173C8.47306 1.50229 7.24168 0.184921 5.72795 0.184921C4.21422 0.184921 2.98284 1.50229 2.98284 3.12173C2.98284 4.74116 4.21422 6.05853 5.72795 6.05853ZM5.72795 1.44355C6.5907 1.44355 7.29659 2.19873 7.29659 3.12173C7.29659 4.04472 6.5907 4.7999 5.72795 4.7999C4.8652 4.7999 4.15931 4.04472 4.15931 3.12173C4.15931 2.19873 4.8652 1.44355 5.72795 1.44355ZM12.7868 6.05853C14.3005 6.05853 15.5319 4.74116 15.5319 3.12173C15.5319 1.50229 14.3005 0.184921 12.7868 0.184921C11.2731 0.184921 10.0417 1.50229 10.0417 3.12173C10.0417 4.74116 11.2731 6.05853 12.7868 6.05853ZM12.7868 1.44355C13.6496 1.44355 14.3555 2.19873 14.3555 3.12173C14.3555 4.04472 13.6496 4.7999 12.7868 4.7999C11.9241 4.7999 11.2182 4.04472 11.2182 3.12173C11.2182 2.19873 11.9241 1.44355 12.7868 1.44355Z" fill="black"/>
</svg>
