<svg width="27" height="433" viewBox="0 0 27 433" fill="none" xmlns="http://www.w3.org/2000/svg">
<path d="M4.05664 420.988C5.04948 421.053 6.09115 421.395 7.18164 422.014L11.5518 416.203C11.8285 415.829 12.1458 415.601 12.5039 415.52C12.862 415.438 13.1712 415.487 13.4316 415.666C13.6921 415.845 13.8548 416.122 13.9199 416.496C13.9688 416.854 13.8304 417.22 13.5049 417.595L8.76855 423.063C8.98014 423.243 9.18359 423.422 9.37891 423.601C11.3158 425.244 12.8783 427.132 14.0664 429.265C14.4733 429.965 14.4652 430.445 14.042 430.705C13.6188 430.949 13.2607 430.852 12.9678 430.412C11.9587 428.931 10.6566 427.596 9.06152 426.408C7.46647 425.204 5.96094 424.439 4.54492 424.113C4.36589 424.081 4.22754 424.113 4.12988 424.211C4.03223 424.309 3.95085 424.52 3.88574 424.846C3.77181 425.318 3.49512 425.529 3.05566 425.48C2.61621 425.432 2.39648 425.122 2.39648 424.553V422.819C2.39648 422.103 2.55924 421.615 2.88477 421.354C3.19401 421.094 3.58464 420.972 4.05664 420.988ZM19.9258 414.03L19.9258 431.828C19.9258 432.349 19.5921 432.609 18.9248 432.609C18.2575 432.609 17.9238 432.349 17.9238 431.828L17.9238 414.03C17.9238 413.461 18.2575 413.176 18.9248 413.176C19.5921 413.176 19.9258 413.461 19.9258 414.03ZM4.05664 400.92C5.04948 400.985 6.09115 401.327 7.18164 401.945L11.5518 396.135C11.8285 395.76 12.1458 395.533 12.5039 395.451C12.862 395.37 13.1712 395.419 13.4316 395.598C13.6921 395.777 13.8548 396.053 13.9199 396.428C13.9688 396.786 13.8304 397.152 13.5049 397.526L8.76855 402.995C8.98014 403.174 9.18359 403.353 9.37891 403.532C11.3158 405.176 12.8783 407.064 14.0664 409.196C14.4733 409.896 14.4652 410.376 14.042 410.637C13.6188 410.881 13.2607 410.783 12.9678 410.344C11.9587 408.863 10.6566 407.528 9.06152 406.34C7.46647 405.135 5.96094 404.37 4.54492 404.045C4.36589 404.012 4.22754 404.045 4.12988 404.143C4.03223 404.24 3.95085 404.452 3.88574 404.777C3.77181 405.249 3.49512 405.461 3.05566 405.412C2.61621 405.363 2.39648 405.054 2.39648 404.484V402.751C2.39648 402.035 2.55924 401.547 2.88477 401.286C3.19401 401.026 3.58464 400.904 4.05664 400.92ZM19.9258 393.962L19.9258 411.76C19.9258 412.281 19.5921 412.541 18.9248 412.541C18.2575 412.541 17.9238 412.281 17.9238 411.76L17.9238 393.962C17.9238 393.392 18.2575 393.107 18.9248 393.107C19.5921 393.107 19.9258 393.392 19.9258 393.962ZM2.51855 388.615L2.51855 377.629C2.51855 377.059 2.8929 376.774 3.6416 376.774H8.1582C9.06966 376.774 9.52539 377.092 9.52539 377.727V386.076H12.0645C12.4714 386.076 12.6748 385.889 12.6748 385.515V376.896C12.6748 376.376 13.0003 376.115 13.6514 376.115C14.2861 376.115 14.6035 376.392 14.6035 376.945V381.438H17.9482V373.918C17.9482 373.332 18.2738 373.039 18.9248 373.039C19.5921 373.039 19.9258 373.332 19.9258 373.918V391.691C19.9258 392.212 19.5921 392.473 18.9248 392.473C18.2738 392.473 17.9482 392.212 17.9482 391.691V384.074H14.6035V387.346C14.6035 388.257 14.0583 388.713 12.9678 388.713H10.0869C9.74512 388.713 9.50911 388.77 9.37891 388.884C9.2487 388.981 9.15104 389.128 9.08594 389.323C9.00456 389.486 8.91504 389.624 8.81738 389.738C8.71973 389.836 8.54069 389.885 8.28027 389.885C7.82454 389.885 7.59668 389.657 7.59668 389.201L7.59668 379.411H4.49609L4.49609 388.64C4.49609 389.16 4.16243 389.421 3.49512 389.421C2.84408 389.421 2.51855 389.152 2.51855 388.615ZM5.8877 363.444C5.8877 363.965 5.55404 364.226 4.88672 364.226C4.23568 364.226 3.91016 363.949 3.91016 363.396L3.91016 356.486C3.91016 356.063 4.0485 355.786 4.3252 355.656C4.60189 355.51 4.92741 355.461 5.30176 355.51C5.72493 355.575 6.16439 355.664 6.62012 355.778V353.654H4.00781C3.53581 353.654 3.2347 353.711 3.10449 353.825C2.97428 353.923 2.86849 354.118 2.78711 354.411C2.68945 354.769 2.59993 355.03 2.51855 355.192C2.4209 355.355 2.25814 355.437 2.03027 355.437C1.55827 355.437 1.32227 355.119 1.32227 354.484L1.32227 352.385C1.32227 351.604 1.6722 351.213 2.37207 351.213H19.9258C21.472 351.213 22.2451 351.872 22.2451 353.19V353.654H13.5049V356.755C13.5049 357.341 13.1794 357.634 12.5283 357.634C11.8936 357.634 11.5762 357.341 11.5762 356.755V353.654H8.57324V356.462C9.64746 356.918 10.7298 357.512 11.8203 358.244C14.0013 359.758 15.7103 361.361 16.9473 363.054C17.4844 363.802 17.5576 364.331 17.167 364.641C16.7764 364.95 16.3939 364.893 16.0195 364.47C14.5547 362.858 12.8864 361.524 11.0146 360.466C9.12663 359.392 7.41764 358.7 5.8877 358.391L5.8877 363.444ZM1.27344 346.794H21.415C22.9613 346.794 23.7344 347.478 23.7344 348.845V349.357H2.90918C2.46973 349.357 2.1849 349.398 2.05469 349.479C1.9082 349.561 1.79427 349.748 1.71289 350.041C1.63151 350.432 1.54199 350.725 1.44434 350.92C1.34668 351.115 1.17578 351.213 0.931641 351.213C0.427083 351.213 0.174805 350.879 0.174805 350.212L0.174805 347.966C0.174805 347.185 0.541016 346.794 1.27344 346.794ZM5.76563 334.074V336.906C5.76563 338.192 6.05859 339.16 6.64453 339.812C7.21419 340.463 7.86523 340.788 8.59766 340.788C9.23242 340.788 9.73698 340.568 10.1113 340.129C10.4857 339.673 10.6729 339.201 10.6729 338.713C10.6729 338.127 10.502 337.622 10.1602 337.199C9.80208 336.776 9.33822 336.564 8.76855 336.564C8.42676 336.564 8.13379 336.678 7.88965 336.906C7.62923 337.134 7.44206 337.427 7.32813 337.785C7.26302 338.013 7.15723 338.16 7.01074 338.225C6.86426 338.29 6.7015 338.265 6.52246 338.151C6.34342 338.037 6.23763 337.867 6.20508 337.639C6.17253 337.395 6.16439 337.183 6.18066 337.004C6.27832 336.141 6.57129 335.417 7.05957 334.831C7.53158 334.229 8.1582 333.928 8.93945 333.928C9.94857 333.928 10.8193 334.375 11.5518 335.271C12.0075 335.84 12.3167 336.507 12.4795 337.272H13.7734C13.7734 336.345 13.7572 335.563 13.7246 334.929C13.7083 334.261 13.627 333.57 13.4805 332.854C13.334 332.056 13.4561 331.6 13.8467 331.486C14.221 331.356 14.5303 331.47 14.7744 331.828C15.0511 332.268 15.2871 332.984 15.4824 333.977C15.6615 334.953 15.751 336.158 15.751 337.59V344.475C15.751 344.995 15.4173 345.256 14.75 345.256C14.099 345.256 13.7734 344.995 13.7734 344.475V339.909H12.5039C12.3411 340.707 11.9912 341.415 11.4541 342.033C10.6891 342.961 9.75326 343.425 8.64648 343.425C8.04427 343.425 7.47461 343.27 6.9375 342.961C6.40039 342.652 6.00977 342.31 5.76563 341.936V344.06C5.76563 344.499 5.45638 344.719 4.83789 344.719C4.23568 344.719 3.93457 344.45 3.93457 343.913L3.93457 334.099C3.93457 333.545 4.23568 333.269 4.83789 333.269C5.45638 333.269 5.76563 333.537 5.76563 334.074ZM2.22559 341.203L1.59082 341.96C1.41178 342.139 1.24902 342.245 1.10254 342.277C0.956055 342.31 0.777018 342.261 0.56543 342.131C0.337565 341.936 0.223633 341.691 0.223633 341.398C0.223633 341.089 0.288737 340.812 0.418945 340.568C0.760742 339.901 0.996745 339.34 1.12695 338.884C1.24089 338.412 1.29785 337.777 1.29785 336.979C1.29785 336.377 1.61523 336.076 2.25 336.076C2.55924 336.076 2.78711 336.182 2.93359 336.394C3.0638 336.589 3.12891 336.841 3.12891 337.15L3.10449 338.737C3.10449 339.649 2.81152 340.471 2.22559 341.203ZM14.0176 328.435C15.5475 328.435 16.3125 329.102 16.3125 330.437V331.047H2.98242C2.51042 331.047 2.20931 331.112 2.0791 331.242C1.94889 331.356 1.8431 331.543 1.76172 331.804C1.68034 332.162 1.58268 332.447 1.46875 332.658C1.35482 332.854 1.17578 332.951 0.931641 332.951C0.427083 332.951 0.174805 332.618 0.174805 331.95L0.174805 329.582C0.174805 328.817 0.532878 328.435 1.24902 328.435H14.0176ZM18.998 340.129C18.998 340.585 18.6644 340.812 17.9971 340.812C17.346 340.812 17.0205 340.576 17.0205 340.104V329.606C17.0205 328.955 17.3949 328.63 18.1436 328.63H21.8301C23.4902 328.63 24.3203 329.248 24.3203 330.485V331.218H18.998V340.129ZM5.22852 313.249C4.49609 313.249 3.86947 313.558 3.34863 314.177C2.8278 314.795 2.56738 315.536 2.56738 316.398C2.56738 317.277 2.8278 318.026 3.34863 318.645C3.86947 319.247 4.49609 319.548 5.22852 319.548C5.92839 319.548 6.53874 319.247 7.05957 318.645C7.56413 318.026 7.81641 317.277 7.81641 316.398C7.81641 315.536 7.56413 314.795 7.05957 314.177C6.53874 313.558 5.92839 313.249 5.22852 313.249ZM5.22852 322.209C3.95898 322.209 2.86035 321.664 1.93262 320.573C1.00488 319.483 0.541016 318.091 0.541016 316.398C0.541016 314.722 1.00488 313.339 1.93262 312.248C2.86035 311.158 3.95898 310.612 5.22852 310.612C6.48177 310.612 7.56413 311.158 8.47559 312.248C9.38704 313.339 9.84277 314.722 9.84277 316.398C9.84277 318.091 9.38704 319.483 8.47559 320.573C7.56413 321.664 6.48177 322.209 5.22852 322.209ZM12.8213 307.536L12.8213 325.334C12.8213 325.855 12.4876 326.115 11.8203 326.115C11.153 326.115 10.8193 325.855 10.8193 325.334L10.8193 307.536C10.8193 306.966 11.153 306.682 11.8203 306.682C12.4876 306.682 12.8213 306.966 12.8213 307.536ZM16.3613 322.038C16.3613 322.543 16.0439 322.795 15.4092 322.795C14.7419 322.795 14.4082 322.535 14.4082 322.014L14.4082 311.174C14.4082 310.572 14.7907 310.271 15.5557 310.271H18.6807C19.5921 310.271 20.0479 310.596 20.0479 311.247L20.0479 319.475H21.293C21.651 319.475 21.8301 319.287 21.8301 318.913L21.8301 310.295C21.8301 309.79 22.1637 309.538 22.8311 309.538C23.4821 309.538 23.8076 309.807 23.8076 310.344L23.8076 320.476C23.8076 321.566 23.1729 322.111 21.9033 322.111H20.6094C20.2513 322.111 20.0153 322.16 19.9014 322.258C19.7712 322.339 19.6735 322.478 19.6084 322.673C19.527 322.836 19.4375 322.99 19.3398 323.137C19.2422 323.267 19.0713 323.332 18.8271 323.332C18.3389 323.332 18.0947 323.104 18.0947 322.648L18.0947 312.907H16.3613L16.3613 322.038ZM4.93555 291.35C6.44922 291.431 8.02799 291.781 9.67188 292.399L14.2861 288.566C14.6117 288.322 14.9697 288.184 15.3604 288.151C15.751 288.119 16.0439 288.257 16.2393 288.566C16.4671 288.941 16.5241 289.283 16.4102 289.592C16.2799 289.885 16.0439 290.153 15.7021 290.397L11.5762 293.229C13.4805 294.19 15.1243 295.41 16.5078 296.892C17.0612 297.494 17.1914 297.974 16.8984 298.332C16.5892 298.69 16.2067 298.682 15.751 298.308C14.1396 297.022 12.3656 296.037 10.4287 295.354C8.49186 294.654 6.83171 294.239 5.44824 294.108C5.28548 294.092 5.16341 294.165 5.08203 294.328C4.98438 294.475 4.91927 294.654 4.88672 294.865C4.77279 295.386 4.50423 295.63 4.08105 295.598C3.6416 295.549 3.42188 295.248 3.42188 294.694L3.42188 292.985C3.42188 292.367 3.54395 291.936 3.78809 291.691C4.01595 291.431 4.39844 291.317 4.93555 291.35ZM2.90918 283C2.46973 283 2.1849 283.041 2.05469 283.122C1.9082 283.203 1.79427 283.391 1.71289 283.684C1.63151 284.074 1.54199 284.367 1.44434 284.562C1.34668 284.758 1.17578 284.855 0.931641 284.855C0.427083 284.855 0.174805 284.522 0.174805 283.854L0.174805 281.608C0.174805 280.827 0.541016 280.437 1.27344 280.437H21.415C22.9613 280.437 23.7344 281.12 23.7344 282.487V283H2.90918ZM4.00781 287.297C3.53581 287.297 3.2347 287.354 3.10449 287.468C2.97428 287.565 2.86849 287.761 2.78711 288.054C2.68945 288.412 2.59993 288.672 2.51855 288.835C2.4209 288.998 2.25814 289.079 2.03027 289.079C1.55827 289.079 1.32227 288.762 1.32227 288.127L1.32227 286.003C1.32227 285.222 1.6722 284.831 2.37207 284.831H19.9258C21.472 284.831 22.2451 285.474 22.2451 286.76V287.297H10.3311V290.031C10.3311 290.552 10.0055 290.812 9.35449 290.812C8.68717 290.812 8.35352 290.552 8.35352 290.031V287.297H4.00781ZM6.20508 265.715C5.32617 265.715 4.57747 266.04 3.95898 266.691C3.32422 267.326 3.00684 268.091 3.00684 268.986C3.00684 269.898 3.32422 270.671 3.95898 271.306C4.57747 271.94 5.32617 272.258 6.20508 272.258C7.10026 272.258 7.8571 271.94 8.47559 271.306C9.09408 270.671 9.40332 269.898 9.40332 268.986C9.40332 268.091 9.09408 267.326 8.47559 266.691C7.8571 266.04 7.10026 265.715 6.20508 265.715ZM6.22949 274.919C4.7972 274.919 3.5765 274.366 2.56738 273.259C1.54199 272.136 1.0293 270.712 1.0293 268.986C1.0293 267.277 1.54199 265.869 2.56738 264.763C3.5765 263.64 4.7972 263.078 6.22949 263.078C7.66178 263.078 8.89063 263.64 9.91602 264.763C10.9251 265.869 11.4297 267.277 11.4297 268.986C11.4297 270.712 10.9251 272.136 9.91602 273.259C8.89063 274.366 7.66178 274.919 6.22949 274.919ZM15.0918 267.668H21.2686C22.9124 267.668 23.7344 268.286 23.7344 269.523V270.28H15.0918L15.0918 277.922C15.0918 278.443 14.7581 278.703 14.0908 278.703C13.4398 278.703 13.1143 278.443 13.1143 277.922L13.1143 260.124C13.1143 259.554 13.4398 259.27 14.0908 259.27C14.7581 259.27 15.0918 259.554 15.0918 260.124L15.0918 267.668ZM13.8467 254.997V250.651H5.76563V254.973H13.3096C13.4886 254.973 13.6676 254.981 13.8467 254.997ZM7.59668 248.039H11.4541L11.4541 244.621H7.59668V248.039ZM3.78809 249.187C3.78809 248.422 4.21126 248.039 5.05762 248.039H5.64355V244.621H2.98242C2.51042 244.621 2.20931 244.686 2.0791 244.816C1.94889 244.93 1.8431 245.118 1.76172 245.378C1.68034 245.736 1.58268 246.021 1.46875 246.232C1.35482 246.428 1.17578 246.525 0.931641 246.525C0.427083 246.525 0.174805 246.208 0.174805 245.573L0.174805 243.181C0.174805 242.399 0.516602 242.009 1.2002 242.009H21.415C22.9613 242.009 23.7344 242.676 23.7344 244.011V244.621H13.4072L13.4072 248.259C13.57 248.308 13.7165 248.365 13.8467 248.43C13.9118 247.958 14.2373 247.722 14.8232 247.722C15.4906 247.722 15.8242 248.007 15.8242 248.576V255.534C16.2799 255.86 16.5078 256.332 16.5078 256.95V257.585H6.9375C6.30273 257.585 5.91211 257.609 5.76563 257.658C5.60286 257.691 5.47266 257.813 5.375 258.024C5.26107 258.236 5.14714 258.415 5.0332 258.562C4.91927 258.692 4.74837 258.757 4.52051 258.757C4.03223 258.757 3.78809 258.431 3.78809 257.78L3.78809 249.187ZM3.12891 228.703L3.12891 217.448C3.12891 216.716 3.58464 216.35 4.49609 216.35C5.76563 216.35 7.45833 216.455 9.57422 216.667C11.6738 216.862 13.4561 217.204 14.9209 217.692C15.1813 217.774 15.3766 217.928 15.5068 218.156C15.637 218.368 15.6452 218.669 15.5313 219.06C15.4661 219.287 15.3522 219.434 15.1895 219.499C15.0267 219.564 14.7826 219.556 14.457 219.475C13.4642 219.279 12.1296 219.165 10.4531 219.133C8.77669 219.084 7.0026 219.06 5.13086 219.06L5.13086 228.728C5.13086 229.248 4.7972 229.509 4.12988 229.509C3.46257 229.509 3.12891 229.24 3.12891 228.703ZM19.9258 213.615L19.9258 231.413C19.9258 231.934 19.5921 232.194 18.9248 232.194C18.2575 232.194 17.9238 231.934 17.9238 231.413L17.9238 213.615C17.9238 213.046 18.2575 212.761 18.9248 212.761C19.5921 212.761 19.9258 213.046 19.9258 213.615ZM5.8877 203.166C5.8877 203.687 5.55404 203.947 4.88672 203.947C4.23568 203.947 3.91016 203.671 3.91016 203.117L3.91016 196.208C3.91016 195.785 4.0485 195.508 4.3252 195.378C4.60189 195.231 4.92741 195.183 5.30176 195.231C5.72493 195.297 6.16439 195.386 6.62012 195.5V193.376H4.00781C3.53581 193.376 3.2347 193.433 3.10449 193.547C2.97428 193.645 2.86849 193.84 2.78711 194.133C2.68945 194.491 2.59993 194.751 2.51855 194.914C2.4209 195.077 2.25814 195.158 2.03027 195.158C1.55827 195.158 1.32227 194.841 1.32227 194.206L1.32227 192.106C1.32227 191.325 1.6722 190.935 2.37207 190.935H19.9258C21.472 190.935 22.2451 191.594 22.2451 192.912V193.376H13.5049L13.5049 196.477C13.5049 197.062 13.1794 197.355 12.5283 197.355C11.8936 197.355 11.5762 197.062 11.5762 196.477L11.5762 193.376H8.57324V196.184C9.64746 196.639 10.7298 197.233 11.8203 197.966C14.0013 199.479 15.7103 201.083 16.9473 202.775C17.4844 203.524 17.5576 204.053 17.167 204.362C16.7764 204.672 16.3939 204.615 16.0195 204.191C14.5547 202.58 12.8864 201.245 11.0146 200.188C9.12663 199.113 7.41764 198.422 5.8877 198.112L5.8877 203.166ZM1.27344 186.516H21.415C22.9613 186.516 23.7344 187.199 23.7344 188.566V189.079H2.90918C2.46973 189.079 2.1849 189.12 2.05469 189.201C1.9082 189.283 1.79427 189.47 1.71289 189.763C1.63151 190.153 1.54199 190.446 1.44434 190.642C1.34668 190.837 1.17578 190.935 0.931641 190.935C0.427083 190.935 0.174805 190.601 0.174805 189.934L0.174805 187.688C0.174805 186.906 0.541016 186.516 1.27344 186.516ZM5.76563 173.796L5.76563 176.628C5.76563 177.914 6.05859 178.882 6.64453 179.533C7.21419 180.184 7.86523 180.51 8.59766 180.51C9.23242 180.51 9.73698 180.29 10.1113 179.851C10.4857 179.395 10.6729 178.923 10.6729 178.435C10.6729 177.849 10.502 177.344 10.1602 176.921C9.80208 176.498 9.33822 176.286 8.76855 176.286C8.42676 176.286 8.13379 176.4 7.88965 176.628C7.62923 176.856 7.44206 177.149 7.32813 177.507C7.26302 177.735 7.15723 177.881 7.01074 177.946C6.86426 178.011 6.7015 177.987 6.52246 177.873C6.34342 177.759 6.23763 177.588 6.20508 177.36C6.17253 177.116 6.16439 176.905 6.18066 176.726C6.27832 175.863 6.57129 175.139 7.05957 174.553C7.53158 173.951 8.1582 173.649 8.93945 173.649C9.94857 173.649 10.8193 174.097 11.5518 174.992C12.0075 175.562 12.3167 176.229 12.4795 176.994H13.7734C13.7734 176.066 13.7572 175.285 13.7246 174.65C13.7083 173.983 13.627 173.291 13.4805 172.575C13.334 171.778 13.4561 171.322 13.8467 171.208C14.221 171.078 14.5303 171.192 14.7744 171.55C15.0511 171.989 15.2871 172.705 15.4824 173.698C15.6615 174.675 15.751 175.879 15.751 177.312L15.751 184.196C15.751 184.717 15.4173 184.978 14.75 184.978C14.099 184.978 13.7734 184.717 13.7734 184.196L13.7734 179.631H12.5039C12.3411 180.428 11.9912 181.136 11.4541 181.755C10.6891 182.683 9.75326 183.146 8.64648 183.146C8.04427 183.146 7.47461 182.992 6.9375 182.683C6.40039 182.373 6.00977 182.032 5.76563 181.657V183.781C5.76563 184.221 5.45638 184.44 4.83789 184.44C4.23568 184.44 3.93457 184.172 3.93457 183.635L3.93457 173.82C3.93457 173.267 4.23568 172.99 4.83789 172.99C5.45638 172.99 5.76563 173.259 5.76563 173.796ZM2.22559 180.925L1.59082 181.682C1.41178 181.861 1.24902 181.966 1.10254 181.999C0.956055 182.032 0.777018 181.983 0.56543 181.853C0.337565 181.657 0.223633 181.413 0.223633 181.12C0.223633 180.811 0.288737 180.534 0.418945 180.29C0.760742 179.623 0.996745 179.061 1.12695 178.605C1.24089 178.133 1.29785 177.499 1.29785 176.701C1.29785 176.099 1.61523 175.798 2.25 175.798C2.55924 175.798 2.78711 175.904 2.93359 176.115C3.0638 176.311 3.12891 176.563 3.12891 176.872L3.10449 178.459C3.10449 179.37 2.81152 180.192 2.22559 180.925ZM14.0176 168.156C15.5475 168.156 16.3125 168.824 16.3125 170.158V170.769H2.98242C2.51042 170.769 2.20931 170.834 2.0791 170.964C1.94889 171.078 1.8431 171.265 1.76172 171.525C1.68034 171.883 1.58268 172.168 1.46875 172.38C1.35482 172.575 1.17578 172.673 0.931641 172.673C0.427083 172.673 0.174805 172.339 0.174805 171.672L0.174805 169.304C0.174805 168.539 0.532878 168.156 1.24902 168.156H14.0176ZM18.998 179.851C18.998 180.306 18.6644 180.534 17.9971 180.534C17.346 180.534 17.0205 180.298 17.0205 179.826V169.328C17.0205 168.677 17.3949 168.352 18.1436 168.352H21.8301C23.4902 168.352 24.3203 168.97 24.3203 170.207V170.939H18.998V179.851ZM5.22852 152.971C4.49609 152.971 3.86947 153.28 3.34863 153.898C2.8278 154.517 2.56738 155.257 2.56738 156.12C2.56738 156.999 2.8278 157.748 3.34863 158.366C3.86947 158.968 4.49609 159.27 5.22852 159.27C5.92839 159.27 6.53874 158.968 7.05957 158.366C7.56413 157.748 7.81641 156.999 7.81641 156.12C7.81641 155.257 7.56413 154.517 7.05957 153.898C6.53874 153.28 5.92839 152.971 5.22852 152.971ZM5.22852 161.931C3.95898 161.931 2.86035 161.385 1.93262 160.295C1.00488 159.204 0.541016 157.813 0.541016 156.12C0.541016 154.444 1.00488 153.06 1.93262 151.97C2.86035 150.879 3.95898 150.334 5.22852 150.334C6.48177 150.334 7.56413 150.879 8.47559 151.97C9.38704 153.06 9.84277 154.444 9.84277 156.12C9.84277 157.813 9.38704 159.204 8.47559 160.295C7.56413 161.385 6.48177 161.931 5.22852 161.931ZM12.8213 147.258L12.8213 165.056C12.8213 165.576 12.4876 165.837 11.8203 165.837C11.153 165.837 10.8193 165.576 10.8193 165.056L10.8193 147.258C10.8193 146.688 11.153 146.403 11.8203 146.403C12.4876 146.403 12.8213 146.688 12.8213 147.258ZM16.3613 161.76C16.3613 162.264 16.0439 162.517 15.4092 162.517C14.7419 162.517 14.4082 162.256 14.4082 161.735L14.4082 150.896C14.4082 150.293 14.7907 149.992 15.5557 149.992H18.6807C19.5921 149.992 20.0479 150.318 20.0479 150.969V159.196H21.293C21.651 159.196 21.8301 159.009 21.8301 158.635V150.017C21.8301 149.512 22.1637 149.26 22.8311 149.26C23.4821 149.26 23.8076 149.528 23.8076 150.065V160.197C23.8076 161.288 23.1729 161.833 21.9033 161.833H20.6094C20.2513 161.833 20.0153 161.882 19.9014 161.979C19.7712 162.061 19.6735 162.199 19.6084 162.395C19.527 162.557 19.4375 162.712 19.3398 162.858C19.2422 162.989 19.0713 163.054 18.8271 163.054C18.3389 163.054 18.0947 162.826 18.0947 162.37V152.629H16.3613V161.76ZM3.4707 130.217C4.47982 130.282 5.52148 130.607 6.5957 131.193L9.8916 127.336C10.1846 126.978 10.5182 126.774 10.8926 126.726C11.2507 126.66 11.5518 126.75 11.7959 126.994C12.0563 127.238 12.1947 127.548 12.2109 127.922C12.2109 128.296 12.0319 128.646 11.6738 128.972L8.08496 132.17C8.23145 132.268 8.37793 132.373 8.52441 132.487C10.266 133.903 11.6169 135.344 12.5771 136.809C13.0003 137.476 13.0329 137.964 12.6748 138.273C12.3167 138.583 11.9505 138.526 11.5762 138.103C10.5508 136.866 9.30566 135.783 7.84082 134.855C6.37598 133.911 5.09017 133.317 3.9834 133.073C3.82064 133.041 3.69857 133.098 3.61719 133.244C3.53581 133.391 3.4707 133.594 3.42188 133.854C3.32422 134.31 3.05566 134.514 2.61621 134.465C2.17676 134.416 1.95703 134.147 1.95703 133.659L1.95703 131.975C1.95703 131.372 2.08724 130.925 2.34766 130.632C2.5918 130.323 2.96615 130.184 3.4707 130.217ZM12.6748 124.26H2.98242C2.51042 124.26 2.20931 124.325 2.0791 124.455C1.94889 124.569 1.8431 124.756 1.76172 125.017C1.68034 125.375 1.58268 125.66 1.46875 125.871C1.35482 126.066 1.17578 126.164 0.931641 126.164C0.427083 126.164 0.174805 125.83 0.174805 125.163L0.174805 122.819C0.174805 122.038 0.532878 121.647 1.24902 121.647H10.2822C11.8773 121.647 12.6748 122.315 12.6748 123.649V124.26ZM23.8076 121.94V131.047C23.8076 131.958 23.2624 132.414 22.1719 132.414H20.2188C19.8607 132.414 19.6247 132.471 19.5107 132.585C19.3805 132.699 19.2747 132.845 19.1934 133.024C19.1445 133.187 19.0632 133.326 18.9492 133.439C18.8353 133.537 18.6563 133.586 18.4121 133.586C17.9401 133.586 17.7041 133.374 17.7041 132.951V124.455H15.5801L15.5801 132.341C15.5801 132.862 15.2464 133.122 14.5791 133.122C13.9443 133.122 13.627 132.854 13.627 132.316L13.627 122.771C13.627 122.152 14.0094 121.843 14.7744 121.843H18.3145C19.2096 121.843 19.6572 122.176 19.6572 122.844V129.777H21.293C21.651 129.777 21.8301 129.59 21.8301 129.216V121.892C21.8301 121.371 22.1556 121.11 22.8066 121.11C23.474 121.11 23.8076 121.387 23.8076 121.94ZM6.86426 117.692C6.86426 118.213 6.5306 118.474 5.86328 118.474C5.21224 118.474 4.88672 118.197 4.88672 117.644L4.88672 110.1C4.88672 109.693 5.04948 109.383 5.375 109.172C5.68424 108.96 6.05046 108.92 6.47363 109.05C7.62923 109.489 8.80111 110.214 9.98926 111.223L13.0898 107.707C13.334 107.414 13.6025 107.251 13.8955 107.219C14.1885 107.186 14.457 107.268 14.7012 107.463C14.9616 107.691 15.0999 107.984 15.1162 108.342C15.1162 108.684 14.9697 108.985 14.6768 109.245L11.2832 112.419C12.6992 113.819 13.9443 115.495 15.0186 117.448C15.4743 118.213 15.5068 118.758 15.1162 119.084C14.7256 119.41 14.3431 119.287 13.9688 118.718C13.0085 117.237 11.8773 115.918 10.5752 114.763C9.27311 113.591 8.03613 112.744 6.86426 112.224L6.86426 117.692ZM2.5918 115.886L2.00586 116.521C1.82682 116.7 1.66406 116.805 1.51758 116.838C1.35482 116.87 1.15951 116.822 0.931641 116.691C0.703776 116.496 0.589844 116.252 0.589844 115.959C0.573568 115.65 0.638672 115.381 0.785156 115.153C1.15951 114.437 1.40365 113.819 1.51758 113.298C1.61523 112.777 1.66406 112.077 1.66406 111.198C1.66406 110.596 1.98145 110.295 2.61621 110.295C2.92546 110.295 3.16146 110.401 3.32422 110.612C3.48698 110.808 3.56836 111.06 3.56836 111.369L3.54395 113.273C3.54395 114.348 3.22656 115.218 2.5918 115.886ZM2.93359 105.314C2.49414 105.314 2.20931 105.38 2.0791 105.51C1.94889 105.624 1.8431 105.811 1.76172 106.071C1.68034 106.429 1.58268 106.714 1.46875 106.926C1.35482 107.121 1.17578 107.219 0.931641 107.219C0.427083 107.219 0.174805 106.885 0.174805 106.218L0.174805 103.874C0.174805 103.093 0.52474 102.702 1.22461 102.702H15.7021C17.2484 102.702 18.0215 103.369 18.0215 104.704V105.314H10.209L10.209 108.269C10.209 108.789 9.88346 109.05 9.23242 109.05C8.5651 109.05 8.23145 108.789 8.23145 108.269L8.23145 105.314H2.93359ZM23.4658 102.556V111.247C23.4658 112.842 22.7334 113.64 21.2686 113.64H19.0225C18.5505 113.64 18.2493 113.713 18.1191 113.859C17.9889 113.99 17.8669 114.193 17.7529 114.47C17.6553 114.828 17.5576 115.08 17.46 115.227C17.3623 115.357 17.1914 115.422 16.9473 115.422C16.4427 115.422 16.1904 115.129 16.1904 114.543L16.1904 112.199C16.1904 111.418 16.5729 111.027 17.3379 111.027H20.9512C21.293 111.027 21.4639 110.873 21.4639 110.563V102.482C21.4639 101.978 21.7975 101.726 22.4648 101.726C23.1322 101.726 23.4658 102.002 23.4658 102.556ZM4.1543 97.9902L3.56836 98.6006C3.4056 98.7633 3.24284 98.861 3.08008 98.8936C2.91732 98.9098 2.73014 98.861 2.51855 98.7471C2.30697 98.5518 2.20117 98.2995 2.20117 97.9902C2.20117 97.6647 2.25814 97.4206 2.37207 97.2578C2.74642 96.623 2.99056 96.1022 3.10449 95.6953C3.20215 95.2721 3.25098 94.6048 3.25098 93.6934C3.25098 93.0911 3.56022 92.79 4.17871 92.79C4.50423 92.79 4.74837 92.8958 4.91113 93.1074C5.05762 93.3027 5.13086 93.5387 5.13086 93.8154L5.10645 95.8662C5.10645 96.6149 4.78906 97.3229 4.1543 97.9902ZM17.0449 95.1582C17.0449 96.4928 16.6055 97.6159 15.7266 98.5273C14.8314 99.4225 13.7083 99.8701 12.3574 99.8701C11.4622 99.8701 10.6403 99.6423 9.8916 99.1865C9.1429 98.7308 8.61393 98.2262 8.30469 97.6729V99.9189C8.30469 100.358 7.97917 100.578 7.32813 100.578C6.70964 100.578 6.40039 100.318 6.40039 99.7969L6.40039 90.8613C6.40039 90.3079 6.70964 90.0312 7.32813 90.0312C7.97917 90.0312 8.30469 90.2998 8.30469 90.8369V93.0098C8.30469 94.3118 8.69531 95.3698 9.47656 96.1836C10.2578 96.9811 11.2181 97.3799 12.3574 97.3799C13.1387 97.3799 13.7816 97.152 14.2861 96.6963C14.7744 96.2243 15.0186 95.7116 15.0186 95.1582C15.0186 94.5234 14.7907 93.9863 14.335 93.5469C13.8792 93.0911 13.2607 92.8633 12.4795 92.8633C11.8936 92.8633 11.4215 93.0098 11.0635 93.3027C10.7054 93.5794 10.4613 93.9049 10.3311 94.2793C10.266 94.4421 10.1602 94.5723 10.0137 94.6699C9.85091 94.7513 9.68001 94.7432 9.50098 94.6455C9.28939 94.5153 9.18359 94.32 9.18359 94.0596C9.18359 93.7829 9.19173 93.5713 9.20801 93.4248C9.32194 92.5947 9.68815 91.8786 10.3066 91.2764C10.9251 90.6742 11.6982 90.373 12.626 90.373C13.863 90.373 14.9128 90.8288 15.7754 91.7402C16.6217 92.6354 17.0449 93.7747 17.0449 95.1582ZM1.27344 82.2676H21.415C22.9613 82.2676 23.7344 82.9512 23.7344 84.3184V84.8311H11.1855V86.7354H19.999C21.4964 86.7354 22.2451 87.3701 22.2451 88.6396V89.1768H4.00781C3.53581 89.1768 3.2347 89.2337 3.10449 89.3477C2.97428 89.4453 2.86849 89.6406 2.78711 89.9336C2.68945 90.2917 2.5918 90.5602 2.49414 90.7393C2.39648 90.9183 2.23372 91.0078 2.00586 91.0078C1.55013 91.0078 1.32227 90.6904 1.32227 90.0557L1.32227 87.8828C1.32227 87.1178 1.6722 86.7354 2.37207 86.7354H9.23242V84.8311H2.90918C2.46973 84.8311 2.1849 84.8717 2.05469 84.9531C1.9082 85.0345 1.79427 85.2217 1.71289 85.5146C1.63151 85.9053 1.54199 86.1982 1.44434 86.3936C1.34668 86.5889 1.17578 86.6865 0.931641 86.6865C0.427083 86.6865 0.174805 86.3529 0.174805 85.6855L0.174805 83.4395C0.174805 82.6582 0.541016 82.2676 1.27344 82.2676ZM6.66895 66.5449L6.66895 60.0752H4.74023C4.30078 60.0752 4.04036 60.0996 3.95898 60.1484C3.8776 60.1973 3.82064 60.2705 3.78809 60.3682C3.69043 60.6286 3.60091 60.8402 3.51953 61.0029C3.42188 61.1494 3.25098 61.2227 3.00684 61.2227C2.56738 61.2227 2.34766 60.889 2.34766 60.2217L2.34766 58.6836C2.34766 57.8698 2.68945 57.4629 3.37305 57.4629H10.5996C11.2018 57.4629 11.6901 57.5768 12.0645 57.8047C12.1296 57.349 12.4551 57.1211 13.041 57.1211C13.7083 57.1211 14.042 57.3978 14.042 57.9512V62.0039H17.9482L17.9482 54.4844C17.9482 53.8984 18.2738 53.6055 18.9248 53.6055C19.5921 53.6055 19.9258 53.8984 19.9258 54.4844L19.9258 72.2578C19.9258 72.7786 19.5921 73.0391 18.9248 73.0391C18.2738 73.0391 17.9482 72.7786 17.9482 72.2578V64.6406H14.042V67.1309C14.4977 67.4564 14.7256 67.9202 14.7256 68.5225V69.1816H5.5459C5.09017 69.1816 4.81348 69.2061 4.71582 69.2549C4.61816 69.2874 4.55306 69.3525 4.52051 69.4502C4.4554 69.613 4.38216 69.792 4.30078 69.9873C4.20313 70.1826 4.02409 70.2803 3.76367 70.2803C3.30794 70.2803 3.08008 69.9466 3.08008 69.2793V67.7168C3.08008 66.9355 3.42188 66.5449 4.10547 66.5449H6.66895ZM8.64648 60.0752V66.5449H11.5029C11.7145 66.5449 11.9017 66.5531 12.0645 66.5693V60.0752H8.64648ZM4.93555 45.7686C6.44922 45.8499 8.02799 46.1999 9.67188 46.8184L14.2861 42.9854C14.6117 42.7412 14.9697 42.6029 15.3604 42.5703C15.751 42.5378 16.0439 42.6761 16.2393 42.9854C16.4671 43.3597 16.5241 43.7015 16.4102 44.0107C16.2799 44.3037 16.0439 44.5723 15.7021 44.8164L11.5762 47.6484C13.4805 48.6087 15.1243 49.8294 16.5078 51.3105C17.0612 51.9128 17.1914 52.3929 16.8984 52.751C16.5892 53.109 16.2067 53.1009 15.751 52.7266C14.1396 51.4408 12.3656 50.4561 10.4287 49.7725C8.49186 49.0726 6.83171 48.6576 5.44824 48.5273C5.28548 48.5111 5.16341 48.5843 5.08203 48.7471C4.98438 48.8936 4.91927 49.0726 4.88672 49.2842C4.77279 49.805 4.50423 50.0492 4.08105 50.0166C3.6416 49.9678 3.42188 49.6667 3.42188 49.1133V47.4043C3.42188 46.7858 3.54395 46.3545 3.78809 46.1104C4.01595 45.8499 4.39844 45.736 4.93555 45.7686ZM2.90918 37.4189C2.46973 37.4189 2.1849 37.4596 2.05469 37.541C1.9082 37.6224 1.79427 37.8096 1.71289 38.1025C1.63151 38.4932 1.54199 38.7861 1.44434 38.9814C1.34668 39.1768 1.17578 39.2744 0.931641 39.2744C0.427083 39.2744 0.174805 38.9408 0.174805 38.2734L0.174805 36.0273C0.174805 35.2461 0.541016 34.8555 1.27344 34.8555H21.415C22.9613 34.8555 23.7344 35.5391 23.7344 36.9062V37.4189H2.90918ZM4.00781 41.7158C3.53581 41.7158 3.2347 41.7728 3.10449 41.8867C2.97428 41.9844 2.86849 42.1797 2.78711 42.4727C2.68945 42.8307 2.59993 43.0911 2.51855 43.2539C2.4209 43.4167 2.25814 43.498 2.03027 43.498C1.55827 43.498 1.32227 43.1807 1.32227 42.5459L1.32227 40.4219C1.32227 39.6406 1.6722 39.25 2.37207 39.25H19.9258C21.472 39.25 22.2451 39.8929 22.2451 41.1787V41.7158H10.3311L10.3311 44.4502C10.3311 44.971 10.0055 45.2314 9.35449 45.2314C8.68717 45.2314 8.35352 44.971 8.35352 44.4502L8.35352 41.7158H4.00781ZM13.627 23.3809C13.627 25.1549 13.0736 26.6442 11.9668 27.8486C10.86 29.0368 9.56608 29.6309 8.08496 29.6309C6.58757 29.6309 5.28548 29.0368 4.17871 27.8486C3.07194 26.6442 2.51855 25.1549 2.51855 23.3809C2.51855 21.623 3.07194 20.1419 4.17871 18.9375C5.28548 17.7331 6.58757 17.1309 8.08496 17.1309C9.56608 17.1309 10.86 17.7331 11.9668 18.9375C12.5365 19.556 12.9596 20.2477 13.2363 21.0127C13.2201 20.915 13.2119 20.8092 13.2119 20.6953V19.2061C13.2119 18.5876 13.5049 18.2783 14.0908 18.2783H17.9482V14.5674C17.9482 13.9814 18.2738 13.6885 18.9248 13.6885C19.5921 13.6885 19.9258 13.9814 19.9258 14.5674V32.3408C19.9258 32.8617 19.5921 33.1221 18.9248 33.1221C18.2738 33.1221 17.9482 32.8617 17.9482 32.3408V27.7998H15.873C15.3848 27.7998 15.0918 27.8161 14.9941 27.8486C14.8802 27.8812 14.7826 28.0114 14.7012 28.2393C14.6035 28.4671 14.514 28.6706 14.4326 28.8496C14.3512 29.0286 14.1885 29.1182 13.9443 29.1182C13.5537 29.1182 13.3584 28.7438 13.3584 27.9951V26.0664C13.3584 25.4805 13.6514 25.1875 14.2373 25.1875H17.9482V20.8906H15.8242C15.3359 20.8906 15.0023 20.8988 14.8232 20.915C14.6279 20.915 14.4977 20.9883 14.4326 21.1348C14.3024 21.3789 14.2129 21.5579 14.1641 21.6719C14.099 21.7858 13.9769 21.8428 13.7979 21.8428C13.6351 21.8428 13.5049 21.7777 13.4072 21.6475C13.5537 22.1846 13.627 22.7624 13.627 23.3809ZM11.6006 23.3809C11.6006 22.388 11.2588 21.5417 10.5752 20.8418C9.87533 20.1419 9.04525 19.792 8.08496 19.792C7.12467 19.792 6.2946 20.1419 5.59473 20.8418C4.89486 21.5417 4.54492 22.388 4.54492 23.3809C4.54492 24.39 4.89486 25.2445 5.59473 25.9443C6.2946 26.6442 7.12467 26.9941 8.08496 26.9941C9.04525 26.9941 9.87533 26.6442 10.5752 25.9443C11.2588 25.2445 11.6006 24.39 11.6006 23.3809Z" fill="white"/>
<path fill-rule="evenodd" clip-rule="evenodd" d="M6.78516 421.975C5.69466 421.356 4.65299 421.014 3.66016 420.949C3.18815 420.933 2.79753 421.055 2.48828 421.315C2.16276 421.576 2 422.064 2 422.78V424.514C2 425.083 2.21973 425.393 2.65918 425.441C3.09863 425.49 3.37533 425.279 3.48926 424.807C3.55436 424.481 3.63574 424.27 3.7334 424.172C3.83105 424.074 3.9694 424.042 4.14844 424.074C5.56445 424.4 7.06999 425.165 8.66504 426.369C10.2601 427.557 11.5622 428.892 12.5713 430.373C12.8643 430.812 13.2223 430.91 13.6455 430.666C14.0687 430.406 14.0768 429.925 13.6699 429.226C12.4818 427.093 10.9193 425.205 8.98242 423.562C8.78711 423.382 8.58366 423.203 8.37207 423.024L13.1084 417.556C13.4339 417.181 13.5723 416.815 13.5234 416.457C13.4583 416.083 13.2956 415.806 13.0352 415.627C12.7747 415.448 12.4655 415.399 12.1074 415.48C11.7493 415.562 11.432 415.79 11.1553 416.164L6.78516 421.975ZM19.5293 431.789V413.991C19.5293 413.422 19.1956 413.137 18.5283 413.137C17.861 413.137 17.5273 413.422 17.5273 413.991V431.789C17.5273 432.31 17.861 432.57 18.5283 432.57C19.1956 432.57 19.5293 432.31 19.5293 431.789ZM6.78516 401.906C5.69466 401.288 4.65299 400.946 3.66016 400.881C3.18815 400.865 2.79753 400.987 2.48828 401.247C2.16276 401.507 2 401.996 2 402.712V404.445C2 405.015 2.21973 405.324 2.65918 405.373C3.09863 405.422 3.37533 405.21 3.48926 404.738C3.55436 404.413 3.63574 404.201 3.7334 404.104C3.83105 404.006 3.9694 403.973 4.14844 404.006C5.56445 404.331 7.06999 405.096 8.66504 406.301C10.2601 407.489 11.5622 408.824 12.5713 410.305C12.8643 410.744 13.2223 410.842 13.6455 410.598C14.0687 410.337 14.0768 409.857 13.6699 409.157C12.4818 407.025 10.9193 405.137 8.98242 403.493C8.78711 403.314 8.58366 403.135 8.37207 402.956L13.1084 397.487C13.4339 397.113 13.5723 396.747 13.5234 396.389C13.4583 396.014 13.2956 395.738 13.0352 395.559C12.7747 395.38 12.4655 395.331 12.1074 395.412C11.7493 395.493 11.432 395.721 11.1553 396.096L6.78516 401.906ZM19.5293 411.721V393.923C19.5293 393.353 19.1956 393.068 18.5283 393.068C17.861 393.068 17.5273 393.353 17.5273 393.923V411.721C17.5273 412.242 17.861 412.502 18.5283 412.502C19.1956 412.502 19.5293 412.242 19.5293 411.721ZM2.12207 377.59V388.576C2.12207 389.113 2.44759 389.382 3.09863 389.382C3.76595 389.382 4.09961 389.121 4.09961 388.601V379.372H7.2002V389.162C7.2002 389.618 7.42806 389.846 7.88379 389.846C8.14421 389.846 8.32324 389.797 8.4209 389.699C8.51855 389.585 8.60807 389.447 8.68945 389.284C8.75456 389.089 8.85221 388.942 8.98242 388.845C9.11263 388.731 9.34863 388.674 9.69043 388.674H12.5713C13.6618 388.674 14.207 388.218 14.207 387.307V384.035H17.5518V391.652C17.5518 392.173 17.8773 392.434 18.5283 392.434C19.1956 392.434 19.5293 392.173 19.5293 391.652V373.879C19.5293 373.293 19.1956 373 18.5283 373C17.8773 373 17.5518 373.293 17.5518 373.879V381.398H14.207V376.906C14.207 376.353 13.8896 376.076 13.2549 376.076C12.6038 376.076 12.2783 376.337 12.2783 376.857V385.476C12.2783 385.85 12.0749 386.037 11.668 386.037H9.12891V377.688C9.12891 377.053 8.67318 376.735 7.76172 376.735H3.24512C2.49642 376.735 2.12207 377.02 2.12207 377.59Z" fill="black"/>
</svg>
