<svg width="575" height="724" viewBox="0 0 575 724" fill="none" xmlns="http://www.w3.org/2000/svg">
<path d="M624.122 189.318L490.518 275.23L409.329 330.444L400.494 317.897L612.342 172.589L624.122 189.318Z" fill="#8A8A8A"/>
<path d="M32.2307 552.971L80.7205 478.064L91.0579 498.273L32.2307 552.971Z" fill="#333333"/>
<path d="M108.045 462.194L80.7205 478.064L91.0579 498.273L108.045 462.194Z" fill="#292929"/>
<path d="M32.6414 552.686L105.759 514.244L116.097 534.453L32.6414 552.686Z" fill="#575757"/>
<path d="M146.144 515.486L105.762 514.246L116.099 534.455L146.144 515.486Z" fill="#676767"/>
<path d="M146.143 515.485L105.761 514.246L137.231 481.521L146.143 515.485Z" fill="#777777"/>
<path d="M146.139 515.483L191.587 480.99L137.227 481.519L146.139 515.483Z" fill="#8C8C8C"/>
<path d="M32.6406 552.686L105.759 514.244L91.0566 498.272L32.6406 552.686Z" fill="#424242"/>
<path d="M137.232 481.521L105.762 514.245L91.0596 498.273L137.232 481.521Z" fill="#424242"/>
<path d="M137.232 481.521L108.047 462.195L91.0598 498.274L137.232 481.521Z" fill="#515151"/>
<path d="M137.232 481.521L108.047 462.195L157.289 430.549L137.232 481.521Z" fill="#626262"/>
<path d="M137.227 481.519L192.283 481.117L157.284 430.547L137.227 481.519Z" fill="#515151"/>
<path d="M157.827 413.756L165.509 424.857L244.86 369.941L370.164 277.749L362.197 266.237L213.331 375.343L157.827 413.756Z" fill="#515151"/>
<path d="M370.162 277.748L244.036 370.509L165.096 425.141L175.055 439.531L382.966 296.25L370.162 277.748Z" fill="#636363"/>
<path d="M388.658 304.473L183.308 451.454L175.056 439.531L382.683 295.839L388.658 304.473Z" fill="#727272"/>
<path d="M206.585 485.09L199.525 474.889L279.284 419.69L409.428 334.486L416.826 345.175L262.497 446.394L206.585 485.09Z" fill="#A4A4A4"/>
<path d="M409.434 334.488L278.881 419.975L199.531 474.891L190.995 462.557L398.052 318.042L409.434 334.488Z" fill="#8A8A8A"/>
<path d="M388.379 304.063L183.313 451.456L190.996 462.557L398.622 318.864L388.379 304.063Z" fill="#727272"/>
<path d="M371.659 264.625L379.611 275.917L460.8 220.703L588.977 127.967L580.732 116.257L427.724 218.386L371.659 264.625Z" fill="#515151"/>
<path d="M588.979 127.968L459.96 221.276L379.191 276.204L389.499 290.842L602.231 146.788L588.979 127.968Z" fill="#636363"/>
<path d="M608.12 155.153L398.039 302.97L389.498 290.842L601.936 146.37L608.12 155.153Z" fill="#727272"/>
<path d="M424.379 341.908L414.366 327.074L496.431 271.312L629.619 185.684L637.276 196.558L504.472 295.039L424.379 341.908Z" fill="#A4A4A4"/>
<path d="M607.837 154.738L398.049 302.974L406.001 314.266L618.438 169.794L607.837 154.738Z" fill="#727272"/>
<path d="M153.721 408.697L179.074 462.902L144.075 412.332L153.721 408.697Z" fill="#747474"/>
<path d="M188.434 458.856L179.073 462.902L202.216 493.707L188.434 458.856Z" fill="#8A8A8A"/>
<path d="M188.434 458.856L207.783 486.814L202.216 493.707L188.434 458.856Z" fill="#A4A4A4"/>
<path d="M188.434 458.856L179.073 462.903L153.721 408.697L188.434 458.856Z" fill="#7B7B7B"/>
<path d="M360.321 263.524L406.03 309.382L368.232 254.766L360.321 263.524Z" fill="#747474"/>
<path d="M397.81 317.696L406.028 309.382L428.274 344.553L397.81 317.696Z" fill="#8A8A8A"/>
<path d="M397.816 317.697L418.712 347.891L428.279 344.554L397.816 317.697Z" fill="#A4A4A4"/>
<path d="M397.816 317.697L406.034 309.383L360.325 263.525L397.816 317.697Z" fill="#7B7B7B"/>
</svg>
