<svg width="15" height="15" viewBox="0 0 15 15" fill="none" xmlns="http://www.w3.org/2000/svg">
<path fill-rule="evenodd" clip-rule="evenodd" d="M6.12636 12.2523C9.50985 12.2523 12.2527 9.50953 12.2527 6.12615C12.2527 2.74277 9.50985 0 6.12636 0C2.74286 0 0 2.74277 0 6.12615C0 9.50953 2.74286 12.2523 6.12636 12.2523ZM6.12618 11.027C8.83298 11.027 11.0273 8.83279 11.0273 6.12609C11.0273 3.41938 8.83298 1.22517 6.12618 1.22517C3.41939 1.22517 1.2251 3.41938 1.2251 6.12609C1.2251 8.83279 3.41939 11.027 6.12618 11.027Z" fill="white"/>
<rect width="6.12625" height="1.22525" transform="matrix(-0.707119 -0.707095 -0.707119 0.707095 15 14.1336)" fill="white"/>
</svg>
