<svg width="93" height="48" viewBox="0 0 93 48" fill="none" xmlns="http://www.w3.org/2000/svg">
<g filter="url(#filter0_d_1307_3)">
<circle cx="24" cy="20" r="20" fill="url(#paint0_radial_1307_3)" shape-rendering="crispEdges"/>
</g>
<g filter="url(#filter1_d_1307_3)">
<path d="M31.9688 22.875C30.4688 22.5625 29.1562 21.8854 28.0312 20.8438C26.4688 19.4062 25.6875 17.6667 25.6875 15.625C25.6875 13.5833 26.4688 11.8333 28.0312 10.375C29.5938 8.89583 31.5625 8.15625 33.9375 8.15625C36.3125 8.15625 38.2917 8.89583 39.875 10.375C41.4583 11.8333 42.25 13.5833 42.25 15.625C42.25 17.6667 41.4583 19.4062 39.875 20.8438C38.7708 21.8854 37.4479 22.5625 35.9062 22.875V27.8438H45.375C46.125 27.8438 46.5 28.375 46.5 29.4375C46.5 30.375 46.125 30.8438 45.375 30.8438H22.375C21.7083 30.8438 21.375 30.375 21.375 29.4375C21.375 28.375 21.7083 27.8438 22.375 27.8438H31.9688V22.875ZM33.9375 20.0938C35.1042 20.0938 36.1146 19.6771 36.9688 18.8438C37.8438 17.9896 38.2812 16.9167 38.2812 15.625C38.2812 14.3333 37.8438 13.2604 36.9688 12.4062C36.1146 11.5521 35.1042 11.125 33.9375 11.125C32.7708 11.125 31.7604 11.5521 30.9062 12.4062C30.0521 13.2604 29.625 14.3333 29.625 15.625C29.625 16.9167 30.0521 17.9896 30.9062 18.8438C31.7604 19.6771 32.7708 20.0938 33.9375 20.0938ZM67.0625 16.6562H54.8438C52.7396 16.6562 51.6875 15.7083 51.6875 13.8125V10.5C51.6875 9.875 51.6562 9.51042 51.5938 9.40625C51.5312 9.28125 51.3438 9.14583 51.0312 9C50.6354 8.875 50.3125 8.72917 50.0625 8.5625C49.8333 8.39583 49.7188 8.11458 49.7188 7.71875C49.7188 7.01042 50.1875 6.65625 51.125 6.65625H53.2188C54.8229 6.65625 55.625 7.19792 55.625 8.28125V13.0625C55.625 13.5208 55.8125 13.75 56.1875 13.75H67.1562C67.8438 13.75 68.1875 14.2396 68.1875 15.2188C68.1875 16.1771 67.8125 16.6562 67.0625 16.6562ZM71.0625 21.5938H48.0625C47.3958 21.5938 47.0625 21.1042 47.0625 20.125C47.0625 19.1667 47.3958 18.6875 48.0625 18.6875H71.0625C71.8125 18.6875 72.1875 19.1667 72.1875 20.125C72.1875 21.1042 71.8125 21.5938 71.0625 21.5938ZM52.125 26.25C51.4583 26.25 51.125 25.7917 51.125 24.875C51.125 23.8958 51.4688 23.4062 52.1562 23.4062H66.5312C67.3438 23.4062 67.75 23.9167 67.75 24.9375V29.2188C67.75 30.3854 67.3333 30.9688 66.5 30.9688H55.9062V32.3125C55.9062 32.7083 56.1458 32.9062 56.625 32.9062H67.7188C68.3854 32.9062 68.7188 33.3958 68.7188 34.375C68.7188 35.3125 68.3542 35.7812 67.625 35.7812H54.1562C52.7396 35.7812 52.0312 34.9583 52.0312 33.3125V31.625C52.0312 31.1458 51.9792 30.8438 51.875 30.7188C51.7708 30.5729 51.6042 30.4688 51.375 30.4062C51.1458 30.2812 50.9375 30.1562 50.75 30.0312C50.5625 29.8854 50.4688 29.625 50.4688 29.25C50.4688 28.5208 50.75 28.1562 51.3125 28.1562H63.875V26.25H52.125Z" fill="white"/>
</g>
<defs>
<filter id="filter0_d_1307_3" x="0" y="0" width="48" height="48" filterUnits="userSpaceOnUse" color-interpolation-filters="sRGB">
<feFlood flood-opacity="0" result="BackgroundImageFix"/>
<feColorMatrix in="SourceAlpha" type="matrix" values="0 0 0 0 0 0 0 0 0 0 0 0 0 0 0 0 0 0 127 0" result="hardAlpha"/>
<feOffset dy="4"/>
<feGaussianBlur stdDeviation="2"/>
<feComposite in2="hardAlpha" operator="out"/>
<feColorMatrix type="matrix" values="0 0 0 0 0 0 0 0 0 0 0 0 0 0 0 0 0 0 0.25 0"/>
<feBlend mode="normal" in2="BackgroundImageFix" result="effect1_dropShadow_1307_3"/>
<feBlend mode="normal" in="SourceGraphic" in2="effect1_dropShadow_1307_3" result="shape"/>
</filter>
<filter id="filter1_d_1307_3" x="17.375" y="6.65625" width="58.8125" height="37.125" filterUnits="userSpaceOnUse" color-interpolation-filters="sRGB">
<feFlood flood-opacity="0" result="BackgroundImageFix"/>
<feColorMatrix in="SourceAlpha" type="matrix" values="0 0 0 0 0 0 0 0 0 0 0 0 0 0 0 0 0 0 127 0" result="hardAlpha"/>
<feOffset dy="4"/>
<feGaussianBlur stdDeviation="2"/>
<feComposite in2="hardAlpha" operator="out"/>
<feColorMatrix type="matrix" values="0 0 0 0 0 0 0 0 0 0 0 0 0 0 0 0 0 0 0.25 0"/>
<feBlend mode="normal" in2="BackgroundImageFix" result="effect1_dropShadow_1307_3"/>
<feBlend mode="normal" in="SourceGraphic" in2="effect1_dropShadow_1307_3" result="shape"/>
</filter>
<radialGradient id="paint0_radial_1307_3" cx="0" cy="0" r="1" gradientUnits="userSpaceOnUse" gradientTransform="translate(37.2 20) scale(42 45.2575)">
<stop offset="0.0104167" stop-color="#6C6C6C" stop-opacity="0"/>
<stop offset="0.63231" stop-color="#BDB5B5"/>
</radialGradient>
</defs>
</svg>
