<svg width="99" height="40" viewBox="0 0 99 40" fill="none" xmlns="http://www.w3.org/2000/svg">
<circle cx="20" cy="20" r="20" fill="url(#paint0_radial_1617_3)"/>
<path d="M22.1562 8.15625H36.75C37.5208 8.15625 37.9062 8.66667 37.9062 9.6875V15.6875C37.9062 16.8958 37.4896 17.5 36.6562 17.5H25.9688V20.4688C25.9688 20.9062 26.2083 21.125 26.6875 21.125H37.75C38.3958 21.125 38.7188 21.6146 38.7188 22.5938C38.7188 23.5521 38.3542 24.0312 37.625 24.0312H31.9062V27.8438H41.3438C42.1146 27.8438 42.5 28.375 42.5 29.4375C42.5 30.375 42.1146 30.8438 41.3438 30.8438H18.375C17.7083 30.8438 17.375 30.375 17.375 29.4375C17.375 28.375 17.7083 27.8438 18.375 27.8438H27.9688V24.0312H23.8125C22.625 24.0312 22.0312 23.3125 22.0312 21.875V18.125C22.0312 17.6667 21.9583 17.3646 21.8125 17.2188C21.6875 17.0729 21.5208 16.9688 21.3125 16.9062C21.0833 16.7812 20.8958 16.6458 20.75 16.5C20.6042 16.3542 20.5312 16.0938 20.5312 15.7188C20.5312 15.0104 20.8125 14.6562 21.375 14.6562H33.9375V11.0625H22.125C21.4583 11.0625 21.125 10.5729 21.125 9.59375C21.125 8.63542 21.4688 8.15625 22.1562 8.15625ZM47.375 8.9375H62.2812C63.2604 8.9375 63.75 9.55208 63.75 10.7812C63.75 12.7188 63.6042 15.0104 63.3125 17.6562C63.0417 20.2812 62.5938 22.4896 61.9688 24.2812C61.8438 24.6354 61.5833 24.9271 61.1875 25.1562C60.8125 25.3646 60.3958 25.3646 59.9375 25.1562C59.6458 25.0521 59.4271 24.8854 59.2812 24.6562C59.1562 24.4062 59.125 24.0521 59.1875 23.5938C59.4375 22.3438 59.5833 20.6458 59.625 18.5C59.6875 16.3542 59.7188 14.1562 59.7188 11.9062H47.3125C46.6667 11.9062 46.3438 11.4062 46.3438 10.4062C46.3438 9.42708 46.6875 8.9375 47.375 8.9375ZM67.0625 30.8438H44.0625C43.3958 30.8438 43.0625 30.3438 43.0625 29.3438C43.0625 28.3438 43.3958 27.8438 44.0625 27.8438H67.0625C67.8125 27.8438 68.1875 28.3438 68.1875 29.3438C68.1875 30.3438 67.8125 30.8438 67.0625 30.8438ZM68.6562 15.5312C68.6562 13.4896 69.3438 11.7917 70.7188 10.4375C72.1146 9.08333 73.8854 8.40625 76.0312 8.40625C78.1979 8.40625 79.9792 9.08333 81.375 10.4375C82.7917 11.7917 83.5 13.4896 83.5 15.5312C83.5 17.5729 82.7917 19.2708 81.375 20.625C79.9792 21.9583 78.1979 22.625 76.0312 22.625C73.8854 22.625 72.1146 21.9583 70.7188 20.625C69.3438 19.2708 68.6562 17.5729 68.6562 15.5312ZM79.5312 15.5C79.5312 14.3125 79.1875 13.3229 78.5 12.5312C77.8333 11.7396 77.0104 11.3438 76.0312 11.3438C75.0938 11.3438 74.2917 11.7396 73.625 12.5312C72.9583 13.3229 72.625 14.3125 72.625 15.5C72.625 16.6875 72.9583 17.6667 73.625 18.4375C74.2917 19.2083 75.0938 19.5938 76.0312 19.5938C77.0104 19.5938 77.8333 19.2083 78.5 18.4375C79.1875 17.6667 79.5312 16.6875 79.5312 15.5ZM86.5312 9C86.5312 8.39583 86.4583 8.02083 86.3125 7.875C86.1667 7.72917 85.9583 7.61458 85.6875 7.53125C85.1875 7.42708 84.7917 7.29167 84.5 7.125C84.2292 6.95833 84.0938 6.69792 84.0938 6.34375C84.0938 5.53125 84.5521 5.125 85.4688 5.125H88.7812C89.9062 5.125 90.4688 5.60417 90.4688 6.5625V25.25C90.4688 27.25 89.4583 28.25 87.4375 28.25H86.5312V9ZM90.5938 35.3438H79.0312C76.9271 35.3438 75.875 34.3958 75.875 32.5V28.9375C75.875 28.3333 75.7917 27.9583 75.625 27.8125C75.4792 27.6667 75.2604 27.5417 74.9688 27.4375C74.4271 27.2917 74.0833 27.1354 73.9375 26.9688C73.7917 26.8021 73.7188 26.5625 73.7188 26.25C73.7188 25.5208 74.125 25.1562 74.9375 25.1562H78.1562C79.2604 25.1562 79.8125 25.6354 79.8125 26.5938V31.7188C79.8125 32.1771 80 32.4062 80.375 32.4062H90.7188C91.4062 32.4062 91.75 32.8958 91.75 33.875C91.75 34.8542 91.3646 35.3438 90.5938 35.3438Z" fill="white"/>
<defs>
<radialGradient id="paint0_radial_1617_3" cx="0" cy="0" r="1" gradientUnits="userSpaceOnUse" gradientTransform="translate(33.2 20) scale(42 45.2575)">
<stop offset="0.0104167" stop-color="#6C6C6C" stop-opacity="0"/>
<stop offset="0.63231" stop-color="#BDB5B5"/>
</radialGradient>
</defs>
</svg>
