<svg width="120" height="40" viewBox="0 0 120 40" fill="none" xmlns="http://www.w3.org/2000/svg">
<circle cx="20" cy="20" r="20" fill="url(#paint0_radial_856_922)"/>
<path d="M26.75 17C26.375 16.8958 26.125 16.7708 26 16.625C25.875 16.4792 25.8333 16.2812 25.875 16.0312C25.9792 15.6771 26.2083 15.4583 26.5625 15.375C26.9167 15.2917 27.3021 15.2708 27.7188 15.3125C29.0938 15.3958 30.1875 15.8229 31 16.5938C31.8125 17.3438 32.1979 18.2917 32.1562 19.4375C32.1354 20.8542 31.5 22.0417 30.25 23C29.4792 23.5625 28.6146 23.9583 27.6562 24.1875V26.2812C28.7812 26.2812 29.7083 26.2708 30.4375 26.25C31.2708 26.2292 32.125 26.1354 33 25.9688C34.25 25.7188 34.9688 25.8854 35.1562 26.4688V9.03125C35.1562 8.40625 35.0625 8.02083 34.875 7.875C34.7083 7.70833 34.4792 7.58333 34.1875 7.5C33.75 7.375 33.3958 7.23958 33.125 7.09375C32.8542 6.94792 32.7188 6.69792 32.7188 6.34375C32.7188 5.53125 33.1562 5.125 34.0312 5.125H37.4375C38.5417 5.125 39.0938 5.57292 39.0938 6.46875V32.7812C39.0938 34.6979 38.0833 35.6562 36.0625 35.6562H35.1562V27.25C35.0938 27.5 34.9271 27.7188 34.6562 27.9062C34.0729 28.2812 33.125 28.5938 31.8125 28.8438C30.5 29.0938 28.875 29.2188 26.9375 29.2188H18.125C17.4583 29.2188 17.125 28.7188 17.125 27.7188C17.125 26.7604 17.4583 26.2812 18.125 26.2812H23.7188V24.25C22.6354 24.0417 21.6667 23.5833 20.8125 22.875C19.5 21.8333 18.8229 20.5312 18.7812 18.9688C18.7812 18.0312 19 17.1979 19.4375 16.4688C19.875 15.7188 20.3958 15.1771 21 14.8438H18.4688C17.7604 14.8438 17.4062 14.3646 17.4062 13.4062C17.4062 12.4688 17.75 12 18.4375 12H31.6875C32.4375 12 32.8125 12.4688 32.8125 13.4062C32.8125 14.3646 32.4375 14.8438 31.6875 14.8438H27.8125C26.2083 14.8438 24.9583 15.25 24.0625 16.0625C23.1667 16.8542 22.7396 17.8125 22.7812 18.9375C22.8021 19.7083 23.0938 20.3333 23.6562 20.8125C24.2396 21.2917 24.8646 21.5312 25.5312 21.5312C26.3021 21.5312 26.9375 21.3125 27.4375 20.875C27.9583 20.4375 28.2292 19.9375 28.25 19.375C28.2917 18.7292 28.1667 18.2083 27.875 17.8125C27.6042 17.4167 27.2292 17.1458 26.75 17ZM21.8438 9.53125L21.0312 8.78125C20.7812 8.53125 20.6458 8.28125 20.625 8.03125C20.6042 7.78125 20.6667 7.54167 20.8125 7.3125C21.0625 6.97917 21.3646 6.79167 21.7188 6.75C22.0938 6.70833 22.5 6.80208 22.9375 7.03125C23.8333 7.44792 24.5521 7.72917 25.0938 7.875C25.6354 8 26.5208 8.0625 27.75 8.0625C28.6875 8.0625 29.1562 8.53125 29.1562 9.46875C29.1562 9.96875 29 10.3333 28.6875 10.5625C28.375 10.7708 28.0312 10.875 27.6562 10.875L25.4688 10.8438C23.9688 10.8438 22.7604 10.4062 21.8438 9.53125ZM42.75 12.0312C42.75 10.3438 43.3854 8.92708 44.6562 7.78125C45.9271 6.63542 47.5729 6.0625 49.5938 6.0625C51.6354 6.0625 53.2917 6.63542 54.5625 7.78125C55.8542 8.92708 56.5 10.3438 56.5 12.0312C56.5 13.6771 55.8542 15.0729 54.5625 16.2188C53.2917 17.3438 51.6354 17.9062 49.5938 17.9062C47.5729 17.9062 45.9271 17.3438 44.6562 16.2188C43.3854 15.0729 42.75 13.6771 42.75 12.0312ZM52.5312 12.0312C52.5312 11.1562 52.2292 10.4375 51.625 9.875C51.0417 9.3125 50.3646 9.03125 49.5938 9.03125C48.8438 9.03125 48.1771 9.3125 47.5938 9.875C47.0104 10.4375 46.7188 11.1562 46.7188 12.0312C46.7188 12.8854 47.0104 13.5833 47.5938 14.125C48.1771 14.6667 48.8438 14.9375 49.5938 14.9375C50.3646 14.9375 51.0417 14.6667 51.625 14.125C52.2292 13.5833 52.5312 12.8854 52.5312 12.0312ZM51.6875 21.5625V24.0625C51.6875 25.7292 50.7708 26.5625 48.9375 26.5625H47.7188V21.5625H42.375C41.7083 21.5625 41.375 21.0729 41.375 20.0938C41.375 19.1354 41.7083 18.6562 42.375 18.6562H51.3438C52.7188 18.6562 53.8229 18.6458 54.6562 18.625C55.5104 18.6042 56.375 18.5 57.25 18.3125C58.5 18.0625 59.2188 18.2396 59.4062 18.8438V18.9062V9C59.4062 8.39583 59.3333 8.02083 59.1875 7.875C59.0417 7.72917 58.8333 7.61458 58.5625 7.53125C58.0625 7.42708 57.6667 7.29167 57.375 7.125C57.1042 6.95833 56.9688 6.69792 56.9688 6.34375C56.9688 5.53125 57.4271 5.125 58.3438 5.125H61.6562C62.7812 5.125 63.3438 5.60417 63.3438 6.5625V26.6562C63.3438 28.6562 62.3333 29.6562 60.3125 29.6562H59.4062V25.9375H54.625C53.9375 25.9375 53.5938 25.4479 53.5938 24.4688C53.5938 23.5104 53.9375 23.0312 54.625 23.0312H59.4062V19.5938C59.3438 19.8646 59.1771 20.0833 58.9062 20.25C58.3229 20.625 57.375 20.9271 56.0625 21.1562C54.8542 21.4062 53.3958 21.5417 51.6875 21.5625ZM63.125 35.3438H51.4688C49.3438 35.3438 48.2812 34.375 48.2812 32.4375V30.9062C48.2812 30.2812 48.2083 29.9062 48.0625 29.7812C47.9167 29.6354 47.6979 29.5104 47.4062 29.4062C46.8646 29.2396 46.5208 29.0729 46.375 28.9062C46.2292 28.7396 46.1562 28.5104 46.1562 28.2188C46.1562 27.5521 46.5625 27.2188 47.375 27.2188H50.5938C51.6771 27.2188 52.2188 27.6875 52.2188 28.625V31.75C52.2188 32.2292 52.4167 32.4688 52.8125 32.4688H63.2812C63.9479 32.4688 64.2812 32.9479 64.2812 33.9062C64.2812 34.8646 63.8958 35.3438 63.125 35.3438ZM67.5938 12.8438C66.9271 12.8438 66.5938 12.3542 66.5938 11.375C66.5938 10.4167 66.9375 9.9375 67.625 9.9375H78.625C79.1875 9.9375 79.5833 10.1562 79.8125 10.5938C80.0625 11.0104 80.1562 11.4583 80.0938 11.9375C79.5938 14.75 78.2292 17.5208 76 20.25C73.7917 22.9792 71.3021 25.1875 68.5312 26.875C67.3438 27.6458 66.5208 27.75 66.0625 27.1875C65.625 26.625 65.7083 26.0729 66.3125 25.5312C68.625 23.7604 70.625 21.6458 72.3125 19.1875C74 16.7292 75.0729 14.6146 75.5312 12.8438H67.5938ZM83.0625 9C83.0625 8.39583 82.9896 8.02083 82.8438 7.875C82.7188 7.72917 82.5208 7.61458 82.25 7.53125C81.75 7.42708 81.3542 7.29167 81.0625 7.125C80.7708 6.95833 80.625 6.69792 80.625 6.34375C80.625 5.53125 81.0833 5.125 82 5.125H85.375C86.4583 5.125 87 5.5625 87 6.4375V16.0938H90.4062C91.0729 16.0938 91.4062 16.5938 91.4062 17.5938C91.4062 18.5938 91.0729 19.0938 90.4062 19.0938H87V32.7812C87 34.6979 86 35.6562 84 35.6562H83.0625V9ZM91.75 14.5C91.75 12.6042 92.4479 11.0104 93.8438 9.71875C95.2604 8.40625 97.0312 7.75 99.1562 7.75C101.281 7.75 103.052 8.40625 104.469 9.71875C105.885 11.0104 106.594 12.6042 106.594 14.5C106.594 16.3542 105.875 17.9167 104.438 19.1875C103.021 20.4583 101.26 21.0938 99.1562 21.0938C97.0312 21.0729 95.2604 20.4375 93.8438 19.1875C92.4479 17.9167 91.75 16.3542 91.75 14.5ZM102.625 14.4688C102.625 13.4062 102.271 12.5312 101.562 11.8438C100.875 11.1562 100.073 10.8125 99.1562 10.8125C98.2604 10.8125 97.4583 11.1562 96.75 11.8438C96.0625 12.5312 95.7188 13.4062 95.7188 14.4688C95.7188 15.5312 96.0625 16.4062 96.75 17.0938C97.4583 17.7604 98.2604 18.0938 99.1562 18.0938C100.073 18.0938 100.875 17.7604 101.562 17.0938C102.271 16.4062 102.625 15.5312 102.625 14.4688ZM109.625 21.75V9C109.625 8.39583 109.552 8.02083 109.406 7.875C109.26 7.72917 109.052 7.61458 108.781 7.53125C108.281 7.42708 107.885 7.29167 107.594 7.125C107.323 6.95833 107.188 6.69792 107.188 6.34375C107.188 5.53125 107.646 5.125 108.562 5.125H111.875C113 5.125 113.562 5.61458 113.562 6.59375V18.6875C113.562 20.7292 112.552 21.75 110.531 21.75H109.625ZM102.938 26.7812H109.562V25.7188C109.562 25.1562 109.521 24.8333 109.438 24.75C109.375 24.6667 109.312 24.6146 109.25 24.5938C108.917 24.4688 108.635 24.3438 108.406 24.2188C108.198 24.0729 108.094 23.8125 108.094 23.4375C108.094 22.75 108.542 22.4062 109.438 22.4062H111.5C112.688 22.4062 113.281 22.875 113.281 23.8125V30.6562C113.281 31.4896 113.146 32.1667 112.875 32.6875C113.438 32.8125 113.719 33.2812 113.719 34.0938C113.719 35.0729 113.333 35.5625 112.562 35.5625H102.062C101.583 36.1458 100.927 36.4375 100.094 36.4375H99.1875V26.7812C99.1875 26.1979 99.1562 25.8542 99.0938 25.75C99.0521 25.6458 99 25.5833 98.9375 25.5625C98.6875 25.4792 98.4375 25.375 98.1875 25.25C97.9375 25.1042 97.8125 24.8438 97.8125 24.4688C97.8125 23.7604 98.2604 23.4062 99.1562 23.4062H101.25C102.375 23.4062 102.938 23.8646 102.938 24.7812V26.7812ZM109.562 29.6875H102.938V32.6562H109.562V29.6875Z" fill="white"/>
<defs>
<radialGradient id="paint0_radial_856_922" cx="0" cy="0" r="1" gradientUnits="userSpaceOnUse" gradientTransform="translate(33.2 20) scale(42 45.2575)">
<stop offset="0.0104167" stop-color="#6C6C6C" stop-opacity="0"/>
<stop offset="0.63231" stop-color="#BDB5B5"/>
</radialGradient>
</defs>
</svg>
